<?xml version="1.0" encoding="UTF-8"?>
<svg version="1.1" xmlns="http://www.w3.org/2000/svg" width="81" height="52">
<path d="M0 0 C26.73 0 53.46 0 81 0 C81 17.16 81 34.32 81 52 C54.27 52 27.54 52 0 52 C0 34.84 0 17.68 0 0 Z " fill="#FEFEFE" transform="translate(0,0)"/>
<path d="M0 0 C0.99 0 1.98 0 3 0 C3.33 5.61 3.66 11.22 4 17 C5.65 15.35 7.3 13.7 9 12 C10.33333333 10.66666667 11.66666667 9.33333333 13 8 C15.49361571 9.20381448 17.68143083 10.45428722 20 12 C20.48210938 11.4946875 20.96421875 10.989375 21.4609375 10.46875 C22.09257813 9.8190625 22.72421875 9.169375 23.375 8.5 C24.31472656 7.52546875 24.31472656 7.52546875 25.2734375 6.53125 C27 5 27 5 29 5 C29 11.27 29 17.54 29 24 C29.66 24 30.32 24 31 24 C31 24.66 31 25.32 31 26 C20.77 26 10.54 26 0 26 C0 17.42 0 8.84 0 0 Z " fill="#98C2E4" transform="translate(24,14)"/>
<path d="M0 0 C0.66 0 1.32 0 2 0 C2 7.92 2 15.84 2 24 C11.57 24 21.14 24 31 24 C31 24.66 31 25.32 31 26 C20.77 26 10.54 26 0 26 C0 17.42 0 8.84 0 0 Z " fill="#417DBF" transform="translate(24,14)"/>
<path d="M0 0 C-1.40844718 3.21524305 -3.10344786 5.32183868 -5.625 7.75 C-6.25664063 8.36359375 -6.88828125 8.9771875 -7.5390625 9.609375 C-8.26222656 10.29773438 -8.26222656 10.29773438 -9 11 C-10.65 9.68 -12.3 8.36 -14 7 C-16.95409701 8.37154504 -19.44008376 9.98863724 -22 12 C-22 9 -22 9 -20.6875 7.39453125 C-20.130625 6.87246094 -19.57375 6.35039062 -19 5.8125 C-18.443125 5.28269531 -17.88625 4.75289062 -17.3125 4.20703125 C-16.6628125 3.60955078 -16.6628125 3.60955078 -16 3 C-13.50638429 4.20381448 -11.31856917 5.45428722 -9 7 C-8.51789062 6.4946875 -8.03578125 5.989375 -7.5390625 5.46875 C-6.59160156 4.49421875 -6.59160156 4.49421875 -5.625 3.5 C-4.99851562 2.8503125 -4.37203125 2.200625 -3.7265625 1.53125 C-2 0 -2 0 0 0 Z " fill="#237AC6" transform="translate(53,19)"/>
</svg>
