<?xml version="1.0" encoding="UTF-8"?>
<svg version="1.1" xmlns="http://www.w3.org/2000/svg" width="83" height="55">
<path d="M0 0 C27.39 0 54.78 0 83 0 C83 18.15 83 36.3 83 55 C55.61 55 28.22 55 0 55 C0 36.85 0 18.7 0 0 Z " fill="#FEFEFE" transform="translate(0,0)"/>
<path d="M0 0 C1.17433594 0.01417969 2.34867188 0.02835938 3.55859375 0.04296875 C5.32396484 0.05263672 5.32396484 0.05263672 7.125 0.0625 C9.99609375 0.23046875 9.99609375 0.23046875 10.99609375 1.23046875 C14.03331932 1.47526006 17.06949981 1.6145524 20.11328125 1.75390625 C23.33217828 2.28602744 24.03733996 2.72601378 25.99609375 5.23046875 C26.26701304 8.1697974 26.36941199 10.86152958 26.30859375 13.79296875 C26.31342773 14.96375977 26.31342773 14.96375977 26.31835938 16.15820312 C26.26326356 21.96329894 26.26326356 21.96329894 23.99609375 24.23046875 C21.32226563 24.48925781 21.32226563 24.48925781 17.96484375 24.49609375 C16.76214844 24.49867187 15.55945313 24.50125 14.3203125 24.50390625 C13.05832031 24.49617188 11.79632813 24.4884375 10.49609375 24.48046875 C9.23410156 24.48820312 7.97210938 24.4959375 6.671875 24.50390625 C5.46917969 24.50132813 4.26648438 24.49875 3.02734375 24.49609375 C1.91939453 24.49383789 0.81144531 24.49158203 -0.33007812 24.48925781 C-3.00390625 24.23046875 -3.00390625 24.23046875 -5.00390625 22.23046875 C-5.26269531 20.19921875 -5.26269531 20.19921875 -5.26953125 17.73046875 C-5.27210937 16.84359375 -5.2746875 15.95671875 -5.27734375 15.04296875 C-5.26574219 13.65078125 -5.26574219 13.65078125 -5.25390625 12.23046875 C-5.26164062 11.30234375 -5.269375 10.37421875 -5.27734375 9.41796875 C-5.27476563 8.53109375 -5.2721875 7.64421875 -5.26953125 6.73046875 C-5.26727539 5.91578125 -5.26501953 5.10109375 -5.26269531 4.26171875 C-4.80835599 0.69558369 -3.41500283 0.26200932 0 0 Z " fill="#F6F6F8" transform="translate(30.00390625,14.76953125)"/>
<path d="M0 0 C1.17433594 0.01417969 2.34867188 0.02835938 3.55859375 0.04296875 C5.32396484 0.05263672 5.32396484 0.05263672 7.125 0.0625 C9.99609375 0.23046875 9.99609375 0.23046875 10.99609375 1.23046875 C14.03331932 1.47526006 17.06949981 1.6145524 20.11328125 1.75390625 C23.33217828 2.28602744 24.03733996 2.72601378 25.99609375 5.23046875 C26.26701304 8.1697974 26.36941199 10.86152958 26.30859375 13.79296875 C26.31342773 14.96375977 26.31342773 14.96375977 26.31835938 16.15820312 C26.26326356 21.96329894 26.26326356 21.96329894 23.99609375 24.23046875 C21.32226563 24.48925781 21.32226563 24.48925781 17.96484375 24.49609375 C16.76214844 24.49867187 15.55945313 24.50125 14.3203125 24.50390625 C13.05832031 24.49617188 11.79632813 24.4884375 10.49609375 24.48046875 C9.23410156 24.48820312 7.97210938 24.4959375 6.671875 24.50390625 C5.46917969 24.50132813 4.26648438 24.49875 3.02734375 24.49609375 C1.91939453 24.49383789 0.81144531 24.49158203 -0.33007812 24.48925781 C-3.00390625 24.23046875 -3.00390625 24.23046875 -5.00390625 22.23046875 C-5.26269531 20.19921875 -5.26269531 20.19921875 -5.26953125 17.73046875 C-5.27210937 16.84359375 -5.2746875 15.95671875 -5.27734375 15.04296875 C-5.26574219 13.65078125 -5.26574219 13.65078125 -5.25390625 12.23046875 C-5.26164062 11.30234375 -5.269375 10.37421875 -5.27734375 9.41796875 C-5.27476563 8.53109375 -5.2721875 7.64421875 -5.26953125 6.73046875 C-5.26727539 5.91578125 -5.26501953 5.10109375 -5.26269531 4.26171875 C-4.80835599 0.69558369 -3.41500283 0.26200932 0 0 Z M-2.00390625 2.23046875 C-2.09060057 3.71918735 -2.11094119 5.21191375 -2.1015625 6.703125 C-2.09833984 7.60224609 -2.09511719 8.50136719 -2.09179688 9.42773438 C-2.08341797 10.37326172 -2.07503906 11.31878906 -2.06640625 12.29296875 C-2.06189453 13.24236328 -2.05738281 14.19175781 -2.05273438 15.16992188 C-2.04090735 17.5234994 -2.0244265 19.87695352 -2.00390625 22.23046875 C2.14191262 22.25933626 6.28770591 22.27722202 10.43359375 22.29296875 C11.61759766 22.30134766 12.80160156 22.30972656 14.02148438 22.31835938 C15.14619141 22.32158203 16.27089844 22.32480469 17.4296875 22.328125 C18.9928772 22.33598022 18.9928772 22.33598022 20.58764648 22.34399414 C22.94738122 22.50352431 22.94738122 22.50352431 23.99609375 21.23046875 C24.09590589 18.55315495 24.1348925 15.907427 24.12109375 13.23046875 C24.12496094 12.48023438 24.12882812 11.73 24.1328125 10.95703125 C24.47284916 7.29440758 24.47284916 7.29440758 22.99609375 4.23046875 C19.9598612 3.94497226 16.9235159 3.78178061 13.87890625 3.609375 C10.99609375 3.23046875 10.99609375 3.23046875 7.99609375 1.23046875 C5.74486878 0.95215403 5.74486878 0.95215403 3.37109375 1.04296875 C2.57445312 1.04941406 1.7778125 1.05585938 0.95703125 1.0625 C-1.00680359 1.01863977 -1.00680359 1.01863977 -2.00390625 2.23046875 Z " fill="#1B7AC5" transform="translate(30.00390625,14.76953125)"/>
<path d="M0 0 C2.875 0.75 2.875 0.75 3.875 1.75 C4.22041851 4.08157492 4.55294257 6.41508361 4.875 8.75 C5.205 9.74 5.535 10.73 5.875 11.75 C4.2483152 11.46788123 2.62367104 11.17397625 1 10.875 C0.09507813 10.71257813 -0.80984375 10.55015625 -1.7421875 10.3828125 C-4.125 9.75 -4.125 9.75 -6.125 7.75 C-6.4883156 4.91613833 -6.4818671 3.34477849 -5 0.875 C-3.125 -0.25 -3.125 -0.25 0 0 Z " fill="#3D80C6" transform="translate(41.125,22.25)"/>
<path d="M0 0 C0.99 0 1.98 0 3 0 C3.33 7.26 3.66 14.52 4 22 C2.68 21.34 1.36 20.68 0 20 C0 13.4 0 6.8 0 0 Z " fill="#5791CB" transform="translate(25,17)"/>
<path d="M0 0 C1.65 0.33 3.3 0.66 5 1 C5 2.65 5 4.3 5 6 C3.125 6.625 3.125 6.625 1 7 C0.34 6.34 -0.32 5.68 -1 5 C-0.625 2.375 -0.625 2.375 0 0 Z " fill="#F0F5F7" transform="translate(38,24)"/>
<path d="M0 0 C2.14576637 -0.02685938 4.29162645 -0.04633088 6.4375 -0.0625 C7.63246094 -0.07410156 8.82742187 -0.08570313 10.05859375 -0.09765625 C13 0 13 0 14 1 C16.01594582 1.23427778 18.038474 1.41336124 20.0625 1.5625 C21.16722656 1.64628906 22.27195312 1.73007812 23.41015625 1.81640625 C24.26480469 1.87699219 25.11945312 1.93757813 26 2 C26 2.33 26 2.66 26 3 C23.68756208 3.02685412 21.3750373 3.04632841 19.0625 3.0625 C17.77472656 3.07410156 16.48695312 3.08570313 15.16015625 3.09765625 C12 3 12 3 11 2 C8.98035801 1.92755947 6.95832876 1.91622812 4.9375 1.9375 C3.83277344 1.94652344 2.72804688 1.95554687 1.58984375 1.96484375 C0.73519531 1.97644531 -0.11945312 1.98804687 -1 2 C-0.67 1.34 -0.34 0.68 0 0 Z " fill="#3880C4" transform="translate(27,15)"/>
<path d="M0 0 C0.33 0 0.66 0 1 0 C1.66 2.97 2.32 5.94 3 9 C-1.455 8.01 -1.455 8.01 -6 7 C-4.68 6.34 -3.36 5.68 -2 5 C-0.71745356 2.46229997 -0.71745356 2.46229997 0 0 Z " fill="#1B74C4" transform="translate(44,25)"/>
</svg>
