<?xml version="1.0" encoding="UTF-8"?>
<svg version="1.1" xmlns="http://www.w3.org/2000/svg" width="78" height="53">
<path d="M0 0 C25.74 0 51.48 0 78 0 C78 17.49 78 34.98 78 53 C52.26 53 26.52 53 0 53 C0 35.51 0 18.02 0 0 Z " fill="#FDFEFE" transform="translate(0,0)"/>
<path d="M0 0 C2.4375 0.125 2.4375 0.125 5 1 C6.5 3.3125 6.5 3.3125 7 6 C5.625 8.3125 5.625 8.3125 4 10 C4.639375 10.309375 5.27875 10.61875 5.9375 10.9375 C8 12 8 12 9 13 C9.04080783 14.99958364 9.04254356 17.00045254 9 19 C8.34 19 7.68 19 7 19 C6.34 17.02 5.68 15.04 5 13 C2.08347826 12.83318891 2.08347826 12.83318891 -1 13 C-3.1385485 15.1385485 -3.42655063 16.13275314 -4 19 C-4.66 19 -5.32 19 -6 19 C-5.63076923 12.6 -5.63076923 12.6 -2.4375 9.5625 C-1.633125 9.046875 -0.82875 8.53125 0 8 C-0.66 7.34 -1.32 6.68 -2 6 C-1.44444444 1.44444444 -1.44444444 1.44444444 0 0 Z " fill="#ACCDE6" transform="translate(37,20)"/>
<path d="M0 0 C2.15849727 0.94795318 4.28530553 1.97121511 6.375 3.0625 C7.43460938 3.61035156 8.49421875 4.15820312 9.5859375 4.72265625 C10.38257812 5.14417969 11.17921875 5.56570312 12 6 C12 6.66 12 7.32 12 8 C7.19783295 7.26252435 3.68643358 5.32888899 -0.5 2.9609375 C-3.56313193 1.78354617 -4.90088872 2.00230788 -8 3 C-9.75395555 3.80203365 -11.48412873 4.65798666 -13.1875 5.5625 C-17.79320113 8 -17.79320113 8 -20 8 C-20 7.34 -20 6.68 -20 6 C-17.80087504 4.79198752 -15.59338181 3.60918053 -13.375 2.4375 C-12.75753906 2.09525391 -12.14007812 1.75300781 -11.50390625 1.40039062 C-7.19822076 -0.84309813 -4.64316721 -1.43246648 0 0 Z " fill="#2C7DC5" transform="translate(43,13)"/>
<path d="M0 0 C2 1.125 2 1.125 3 3 C3.1875 6.1875 3.1875 6.1875 3 9 C2.34 9 1.68 9 1 9 C0.34 7.02 -0.32 5.04 -1 3 C-3.91652174 2.83318891 -3.91652174 2.83318891 -7 3 C-9.1385485 5.1385485 -9.42655063 6.13275314 -10 9 C-10.66 9 -11.32 9 -12 9 C-11.6875 5.625 -11.6875 5.625 -11 2 C-7.18977687 -0.54014875 -4.46529184 -0.58606955 0 0 Z " fill="#3A80C7" transform="translate(43,30)"/>
<path d="M0 0 C1.67542976 0.28604898 3.34385343 0.61781233 5 1 C5.625 2.875 5.625 2.875 6 5 C5.34 5.66 4.68 6.32 4 7 C1.875 6.625 1.875 6.625 0 6 C-0.38218767 4.34385343 -0.71395102 2.67542976 -1 1 C-0.67 0.67 -0.34 0.34 0 0 Z " fill="#4C8FCD" transform="translate(27,22)"/>
<path d="M0 0 C1.67542976 0.28604898 3.34385343 0.61781233 5 1 C5 2.65 5 4.3 5 6 C1.25 7.125 1.25 7.125 -1 6 C-1.042721 4.33388095 -1.04063832 2.66617115 -1 1 C-0.67 0.67 -0.34 0.34 0 0 Z " fill="#488BC9" transform="translate(46,22)"/>
<path d="M0 0 C1.67542976 0.28604898 3.34385343 0.61781233 5 1 C5 2.65 5 4.3 5 6 C4.34 5.01 3.68 4.02 3 3 C2.34 3 1.68 3 1 3 C1.33 4.32 1.66 5.64 2 7 C0.68 6.67 -0.64 6.34 -2 6 C-1.125 1.125 -1.125 1.125 0 0 Z " fill="#277AC6" transform="translate(37,20)"/>
<path d="M0 0 C2.375 0.3125 2.375 0.3125 5 1 C7 4 7 4 7 8 C6.34 8 5.68 8 5 8 C4.9175 7.21625 4.835 6.4325 4.75 5.625 C4.27193661 2.85250896 4.27193661 2.85250896 1.9375 1.6875 C1.298125 1.460625 0.65875 1.23375 0 1 C0 0.67 0 0.34 0 0 Z " fill="#3B8BCD" transform="translate(47,31)"/>
<path d="M0 0 C0 0.66 0 1.32 0 2 C-0.99 2.66 -1.98 3.32 -3 4 C-3.72382467 6.05925139 -3.72382467 6.05925139 -4 8 C-4.66 8 -5.32 8 -6 8 C-6.36458333 3.50347222 -6.36458333 3.50347222 -4.6875 1.1875 C-3 0 -3 0 0 0 Z " fill="#3989CD" transform="translate(30,31)"/>
</svg>
